<svg width="48" height="48" viewBox="0 0 48 48" fill="none" xmlns="http://www.w3.org/2000/svg">
<rect width="48" height="48" rx="10" fill="white"/>
<rect x="10" y="12" width="28" height="26" rx="5" fill="#14203A"/>
<path d="M10 17C10 14.2386 12.2386 12 15 12H33C35.7614 12 38 14.2386 38 17V19H10V17Z" fill="#24345A"/>
<rect x="16" y="9" width="3" height="7" rx="1.5" fill="#121212"/>
<rect x="29" y="9" width="3" height="7" rx="1.5" fill="#121212"/>
<rect x="15" y="23" width="5" height="4" rx="1.2" fill="white" fill-opacity="0.55"/>
<rect x="21.5" y="23" width="5" height="4" rx="1.2" fill="white"/>
<rect x="28" y="23" width="5" height="4" rx="1.2" fill="white" fill-opacity="0.55"/>
<rect x="15" y="30" width="5" height="4" rx="1.2" fill="white" fill-opacity="0.55"/>
<rect x="21.5" y="30" width="5" height="4" rx="1.2" fill="white" fill-opacity="0.55"/>
</svg>
