<svg preserveAspectRatio="none" overflow="visible" style="display: block;" width="14" height="14" viewBox="0 0 14 14" fill="none" xmlns="http://www.w3.org/2000/svg">
<g id="SVG">
<path id="Vector" d="M8.16602 10.4997V3.49967C8.16602 3.19026 8.0431 2.89351 7.82431 2.67472C7.60551 2.45592 7.30877 2.33301 6.99935 2.33301H2.33268C2.02326 2.33301 1.72652 2.45592 1.50772 2.67472C1.28893 2.89351 1.16602 3.19026 1.16602 3.49967V9.91634C1.16602 10.0711 1.22747 10.2194 1.33687 10.3288C1.44627 10.4382 1.59464 10.4997 1.74935 10.4997H2.91602" stroke="#7C3BED" stroke-width="1.16667" stroke-linecap="round" stroke-linejoin="round"/>
<path id="Vector_2" d="M8.75 10.5H5.25" stroke="#7C3BED" stroke-width="1.16667" stroke-linecap="round" stroke-linejoin="round"/>
<path id="Vector_3" d="M11.0827 10.5003H12.2493C12.4041 10.5003 12.5524 10.4389 12.6618 10.3295C12.7712 10.2201 12.8327 10.0717 12.8327 9.91699V7.78783C12.8324 7.65545 12.7872 7.52708 12.7043 7.42383L10.6743 4.88633C10.6198 4.81801 10.5506 4.76282 10.4718 4.72486C10.3931 4.68689 10.3068 4.66712 10.2193 4.66699H8.16602" stroke="#7C3BED" stroke-width="1.16667" stroke-linecap="round" stroke-linejoin="round"/>
<path id="Vector_4" d="M9.91667 11.6663C10.561 11.6663 11.0833 11.144 11.0833 10.4997C11.0833 9.85534 10.561 9.33301 9.91667 9.33301C9.27233 9.33301 8.75 9.85534 8.75 10.4997C8.75 11.144 9.27233 11.6663 9.91667 11.6663Z" stroke="#7C3BED" stroke-width="1.16667" stroke-linecap="round" stroke-linejoin="round"/>
<path id="Vector_5" d="M4.08268 11.6663C4.72701 11.6663 5.24935 11.144 5.24935 10.4997C5.24935 9.85534 4.72701 9.33301 4.08268 9.33301C3.43835 9.33301 2.91602 9.85534 2.91602 10.4997C2.91602 11.144 3.43835 11.6663 4.08268 11.6663Z" stroke="#7C3BED" stroke-width="1.16667" stroke-linecap="round" stroke-linejoin="round"/>
</g>
</svg>
