<svg preserveAspectRatio="none" overflow="visible" style="display: block;" width="775.6" height="760.6" viewBox="0 0 775.6 760.6" fill="none" xmlns="http://www.w3.org/2000/svg">
<g id="Frame 145617">
<g id="Ellipse 2" filter="url(#filter0_f_0_28)">
<ellipse cx="387.8" cy="380.3" rx="195" ry="187.5" fill="url(#paint0_radial_0_28)"/>
</g>
<g id="Group 1" opacity="0.5">
<path id="Vector" d="M357.021 212.815C371.996 212.458 388.955 218.359 397.566 231.223C404.379 241.402 405.097 252.782 402.851 264.485C401.727 270.175 399.652 275.635 396.712 280.635C395.763 282.261 394.241 284.042 393.036 285.555C388.777 290.903 385.586 295.293 379.887 299.189C396.719 299.821 412.682 312.847 419.59 327.719C420.66 328.068 421.728 328.425 422.792 328.791C430.281 331.352 432.895 333.674 439.506 337.136C454.978 345.234 468.838 354.875 481.013 367.458C483.186 369.885 485.134 372.619 487.225 375.109C495.786 385.309 502.836 397.199 507.294 409.763C507.805 411.232 508.623 412.882 508.977 414.378C511.608 425.519 515.069 436.491 516.234 447.921C516.443 449.972 517.379 452.253 517.507 454.354C517.745 458.258 518.07 462.186 518.316 466.088C518.83 473.403 519.192 480.73 519.399 488.06C519.517 492.33 519.925 497.413 519.546 501.557C519.422 502.913 516.304 503.648 516.157 499.728C515.52 482.635 515.772 465.055 512.775 448.192C512.297 445.509 512.107 442.694 511.585 440.03C507.056 416.902 500.172 394.944 484.194 376.949C482.125 374.618 480.355 371.803 478.161 369.546C463.378 353.915 444.776 343.66 426.012 333.645C423.384 332.242 420.269 331.696 417.706 330.645C416.677 330.223 414.833 325.831 413.947 324.545C410.13 319.013 405.966 313.919 400.267 310.198C391.234 303.706 381.154 301.18 370.189 303.354C363.631 304.572 356.324 309.082 352.743 314.826C347.643 323.006 346.159 333.075 348.157 342.446C350.347 352.722 354.644 360.909 363.788 366.686C370.674 371.037 380.461 374.283 388.725 373.227C392.232 372.635 397.033 371.431 400.724 370.671C402.559 368.544 405.049 369.189 405.097 370.452C405.344 376.932 391.353 392.951 388.483 396.048C372.673 413.24 352.794 426.181 330.675 433.68C326.827 435.299 312.591 439.049 308.432 438.855C308.143 442.456 307.601 445.567 307.155 449.113C306.593 453.867 306.056 458.626 305.544 463.385C316.45 465.192 328.455 466.254 339.401 464.364C366.478 459.686 392.389 447.093 412.324 428.1C414.777 425.763 416.737 422.975 419.325 420.954C419.962 420.456 421.359 420.969 421.316 421.865C421.736 429.776 419.724 438.056 420.273 445.969C421.395 462.13 424.048 478.288 428.964 493.748C430.492 498.436 432.338 502.944 434.352 507.436C434.915 508.692 434.756 509.951 433.334 510.381C432.346 510.127 431.522 509.323 431.075 508.413C423.823 493.648 420.242 475.965 418.116 459.841C416.617 448.459 415.914 438.12 418.17 427.139C397.343 449.386 364.4 465.165 334.016 468.588C325.951 469.499 313.218 468.578 305.257 466.564C304.089 477.029 303.007 489.393 302.232 499.928L301.011 516.169C300.714 519.998 300.965 524.448 299.616 528.058C298.485 531.084 294.906 529.658 292.945 528.729C290.34 532.531 287.501 533.216 283.647 530.678C282.039 532.22 281.89 532.245 279.792 532.8C277.339 532.015 276.497 531.635 275.052 529.387C274.12 529.828 273.178 530.219 272.136 530.277C270.996 530.339 269.986 530.006 269.164 529.203C263.567 523.736 263.139 465.775 263.183 454.753C258.606 453.592 257.633 452.508 256.637 447.964C256.97 446.745 257.341 445.942 257.84 444.783C255.844 441.533 256.708 438.642 258.081 435.384C257.11 432.161 257.491 429.584 259.252 426.721C257.45 421.534 261.055 417.034 266.159 416.065C267.188 411.83 267.713 406.861 268.653 402.481C272.873 382.805 279.061 363.39 287.9 345.288C296.079 328.536 305.011 312.172 318.979 299.489C312.709 291.867 310.429 279.729 309.231 270.146C308.223 262.091 310.217 254.613 311.804 246.885C316.089 226.023 336.754 214.487 357.021 212.815ZM284.984 527.882C294.443 532.475 287.237 514.444 291.228 512.437C292.061 512.459 292.043 512.499 292.745 512.882C294.738 515.326 292.031 525.922 296.343 526.299C297.282 525.253 297.254 518.884 297.379 517.212L298.629 501.112C299.815 485.305 301.372 467.988 303.258 452.265C304.901 435.489 308.18 418.74 312.005 402.332C312.748 399.144 318.025 372.17 323.085 375.748C324.084 377.68 321.215 381.631 320.524 383.631C316.511 395.243 314.517 407.72 311.788 419.706C310.582 425.007 310.012 430.59 308.893 435.874C313.647 434.858 318.739 433.728 323.382 432.347C352.847 423.581 379.311 405.468 396.795 380.037C398.053 378.207 399.152 376.005 400.149 373.995C386.912 378.425 378.341 377.806 365.789 371.834C345.14 362.011 338.294 334.968 348.373 315.318C351.837 308.565 358.812 302.988 366.084 300.814C368.528 300.081 373.131 299.537 374.964 298.529C381.41 294.983 390.974 283.383 394.439 277.4C400.1 267.629 402.305 252.308 398.66 241.471C395.764 232.86 390.2 226.263 381.965 222.044C374.453 218.183 366.107 216.225 357.662 216.343C344.916 217.113 332.756 222.017 323.834 231.251C322.333 232.805 318.622 237.616 317.861 239.478C310.338 257.881 310.819 278.231 320.362 295.803C321.323 297.572 323.742 299.614 322.744 301.452C321.961 302.006 322.178 301.753 321.647 301.965C320.004 302.62 317.514 305.653 316.318 306.992C310.853 313.136 305.935 319.746 301.622 326.747C300.226 329.043 299.119 331.54 297.84 333.89C294.53 339.973 291.169 346.278 288.327 352.581C269.676 393.93 264.496 439.012 267.282 483.947C268.045 496.252 267.794 508.475 270.138 520.658C270.437 522.215 270.36 525.549 271.324 526.655C272.071 526.961 271.702 526.919 272.465 526.828C275.461 524.924 273.754 514.066 273.982 510.748C274.128 508.626 275.786 508.137 277.047 509.58C278.222 512.778 277.931 523.262 277.098 526.621C277.86 527.76 278.28 528.708 279.604 529.06C283.289 528.252 282.044 517.346 282.296 514.484C282.412 513.167 281.798 510.917 283.562 510.454C285.857 509.851 285.996 513.757 285.957 515.105C285.839 519.172 286.149 523.989 284.984 527.882ZM260.074 446.904C259.932 449.637 260.788 450.388 263.236 451.144C263.353 449.972 263.385 448.949 263.421 447.776C262.094 447.519 261.354 447.302 260.074 446.904ZM264.441 431.939C262.933 431.109 261.891 429.96 261.115 429.547C261.062 430.807 260.975 432.194 260.965 433.444C262.095 434.897 262.435 435.377 264.177 436.133L264.441 431.939ZM263.807 439.689C262.4 439.248 261.508 438.836 260.247 438.033C259.913 441.604 259.666 443.123 263.491 444.255C263.598 442.75 263.732 441.192 263.807 439.689ZM265.303 419.487C262.444 421.553 261.006 424.065 263.778 426.999L264.421 427.593L264.694 427.489C264.823 427.143 265.565 420.344 265.578 419.638L265.303 419.487Z" fill="white"/>
<path id="Vector_2" d="M378.228 343.069C381.966 344.117 379.679 346.553 378.257 348.386C372.344 356.007 364.211 353.25 357.902 347.87C355.129 345.417 357.497 343.596 358.28 344.135C363.76 347.934 370.403 353.403 375.716 345.797C376.252 345.03 377.437 343.593 378.228 343.069Z" fill="white"/>
<path id="Vector_3" d="M391.378 263.3C395.254 263.517 393.547 266.389 392.554 268.486C388.425 277.204 379.889 276.267 372.567 272.376C369.33 270.579 371.25 268.29 372.13 268.647C378.301 271.173 385.968 275.08 389.514 266.506C389.872 265.642 390.718 263.983 391.378 263.3Z" fill="white"/>
</g>
</g>
<defs>
<filter id="filter0_f_0_28" x="0" y="0" width="775.6" height="760.6" filterUnits="userSpaceOnUse" color-interpolation-filters="sRGB">
<feFlood flood-opacity="0" result="BackgroundImageFix"/>
<feBlend mode="normal" in="SourceGraphic" in2="BackgroundImageFix" result="shape"/>
<feGaussianBlur stdDeviation="96.4" result="effect1_foregroundBlur_0_28"/>
</filter>
<radialGradient id="paint0_radial_0_28" cx="0" cy="0" r="1" gradientTransform="matrix(156 -130.851 115.798 36.1138 387.8 380.3)" gradientUnits="userSpaceOnUse">
<stop stop-color="#FFCCA8"/>
<stop offset="1" stop-color="#FF9D57"/>
</radialGradient>
</defs>
</svg>
